<svg xmlns="http://www.w3.org/2000/svg" viewBox="0 0 32 32" fill="none">
  <!-- TPS Simple Icon - Optimized for favicon -->
  <rect width="32" height="32" fill="white"/>
  <defs>
    <linearGradient id="favGradient" x1="0%" y1="0%" x2="100%" y2="100%">
      <stop offset="0%" style="stop-color:#00B4B4"/>
      <stop offset="100%" style="stop-color:#003366"/>
    </linearGradient>
  </defs>
  
  <!-- T Letter -->
  <path d="M5 8 L14 8 L14 10 L10 10 L10 24 L9 24 L9 10 L5 10 Z" fill="url(#favGradient)"/>
  
  <!-- P Letter -->
  <path d="M15 8 L22 8 Q25 8 25 12 Q25 16 22 16 L17 16 L17 24 L15 24 L15 8 L17 8 L17 14 L21 14 Q23 14 23 12 Q23 10 21 10 L17 10 Z" fill="url(#favGradient)"/>
  
  <!-- S Letter -->
  <path d="M26 10 Q26 8 28 8 Q30 8 30 11 Q30 13 28 14 L27 14.5 Q26 15 26 16 Q26 18 28 18 Q29 18 30 17 L30 18 Q29 19 28 19 Q26 19 26 16.5 Q26 14 28 13.5 L29 13 Q30 12.5 30 11.5 Q30 10 28 10 Q27 10 26 11 L26 10 Z" fill="url(#favGradient)"/>
</svg>
