<svg xmlns="http://www.w3.org/2000/svg" viewBox="0 0 400 120" fill="none">
  <!-- TPS Stylized Logo -->
  <defs>
    <linearGradient id="tpsGradient" x1="0%" y1="0%" x2="100%" y2="0%">
      <stop offset="0%" style="stop-color:#00B4B4"/>
      <stop offset="50%" style="stop-color:#0066CC"/>
      <stop offset="100%" style="stop-color:#003366"/>
    </linearGradient>
  </defs>
  
  <!-- T Letter -->
  <path d="M20 25 L70 25 L70 35 L50 35 L50 85 L40 85 L40 35 L20 35 Z" fill="url(#tpsGradient)"/>
  
  <!-- P Letter -->
  <path d="M75 25 L115 25 Q130 25 130 45 Q130 65 115 65 L95 65 L95 85 L85 85 L85 25 L95 25 L95 55 L110 55 Q118 55 118 45 Q118 35 110 35 L95 35 Z" fill="url(#tpsGradient)"/>
  
  <!-- S Letter -->
  <path d="M135 35 Q135 25 155 25 Q180 25 180 40 Q180 50 160 55 L150 58 Q140 62 140 70 Q140 80 160 80 Q175 80 180 70 L180 85 Q175 90 155 90 Q130 90 130 72 Q130 58 150 52 L160 48 Q170 44 170 38 Q170 35 155 35 Q142 35 140 42 L135 35 Z" fill="url(#tpsGradient)"/>
  
  <!-- Text Below -->
  <text x="20" y="110" font-family="Arial, sans-serif" font-size="14" font-weight="bold" fill="#003366" letter-spacing="1">
    TA'ANG POPULATION SYSTEM
  </text>
  
  <!-- Tagline -->
  <text x="20" y="125" font-family="Arial, sans-serif" font-size="7" fill="#666666" letter-spacing="0.5">
    SOLUTIONS | INNOVATION | EFFICIENCY
  </text>
</svg>
